PathFileType	4	(X/Y/Z)	C:/Users/opensim2020/Desktop/walking_exp_matlab/subject01_walking05_straight_02.trc	
DataRate	CameraRate	NumFrames	NumMarkers	Units	OrigDataRate	OrigDataStartFrame	OrigNumFrames	
100.00	100.00	4	43	mm	100.00	1476	205	
Frame#	Time	LFHD			RFHD			LBHD			RBHD			C7			T10			CLAV			STRN			RBAK			LSHO			LUPA			LELB			LFRM			LWRA			LWRB			LFIN			RSHO			RUPA			RELB			RFRM			RWRA			RWRB			RFIN			LASI			RASI			LPSI			RPSI			LTHI			LKNE			LTIB			LANK			LHEE			LTOE			RTHI			RKNE			RTIB			RANK			RHEE			RTOE			*39			*40			*41			*42			
		X1	Y1	Z1	X2	Y2	Z2	X3	Y3	Z3	X4	Y4	Z4	X5	Y5	Z5	X6	Y6	Z6	X7	Y7	Z7	X8	Y8	Z8	X9	Y9	Z9	X10	Y10	Z10	X11	Y11	Z11	X12	Y12	Z12	X13	Y13	Z13	X14	Y14	Z14	X15	Y15	Z15	X16	Y16	Z16	X17	Y17	Z17	X18	Y18	Z18	X19	Y19	Z19	X20	Y20	Z20	X21	Y21	Z21	X22	Y22	Z22	X23	Y23	Z23	X24	Y24	Z24	X25	Y25	Z25	X26	Y26	Z26	X27	Y27	Z27	X28	Y28	Z28	X29	Y29	Z29	X30	Y30	Z30	X31	Y31	Z31	X32	Y32	Z32	X33	Y33	Z33	X34	Y34	Z34	X35	Y35	Z35	X36	Y36	Z36	X37	Y37	Z37	X38	Y38	Z38	X39	Y39	Z39	X40	Y40	Z40	X41	Y41	Z41	X42	Y42	Z42	X43	Y43	Z43	

1	0.000	1504.78943	1095.52148	1671.00427	1393.34827	1073.62500	1680.64221	1485.98389	1198.47778	1602.21082	1368.21106	1179.35266	1610.75574	1437.04041	1213.96472	1427.47095	1414.92578	1243.53333	1134.79358	1453.67896	1069.31030	1361.67847	1456.42346	1023.70825	1208.58118	1346.55359	1255.73132	1236.76318	1605.85632	1155.83948	1382.06750	1670.58276	1215.22632	1195.53320	1655.45435	1244.17627	1049.82532	1684.09448	1236.41541	938.76031	1675.84802	1183.19287	808.03320	1690.78308	1241.62207	816.68628	1701.17102	1213.43848	735.77002	1295.81641	1113.21790	1396.04272	1182.24365	1153.30481	1198.98340	1174.41626	1147.14478	1072.23425	1149.03406	1095.92773	960.07782	1177.55249	995.94916	862.58862	1135.22583	1035.84094	854.30408	1139.88013	983.39618	788.36066	1529.35498	1072.35181	932.22382	1314.04004	1067.51331	926.34460	1473.54907	1258.65320	942.94519	1328.80579	1250.90515	945.87952	1593.93469	1038.86938	616.64355	1577.13647	1014.76862	484.53754	1595.74365	1037.17212	295.35486	1547.51685	1032.89099	74.63644	1493.03040	1072.97266	43.56712	1552.11023	884.02155	42.13722	1260.35803	1154.55762	595.44385	1279.78015	1179.06677	435.09921	1273.56458	1317.94409	322.42065	1314.37805	1455.33740	163.36185	1362.04541	1513.34180	168.91577	1349.37280	1379.39722	41.26067	1413.84204	1094.85791	1710.97534	-3102.00781	1973.07422	1023.39563	-3140.74878	2012.55896	1022.00464			 
2	0.010	1508.03674	1086.05969	1671.74243	1396.61731	1064.39648	1681.60620	1489.52234	1189.18542	1603.26294	1371.59155	1170.37671	1611.98230	1440.43091	1204.68591	1428.17212	1417.69446	1233.90234	1135.65002	1456.39014	1059.81763	1362.91162	1458.58545	1013.85321	1209.76379	1349.31958	1246.49988	1237.79041	1608.79639	1145.83276	1382.87512	1674.10815	1203.13000	1196.09302	1659.77625	1231.03149	1050.20667	1688.70837	1222.08154	939.31433	1680.85120	1167.80896	809.03033	1696.14087	1226.24890	817.37750	1706.58191	1197.34875	736.57147	1298.43591	1104.42725	1397.87305	1185.19385	1145.26831	1200.50903	1177.40161	1139.43591	1074.08838	1151.45203	1089.93250	961.32764	1179.23389	990.96893	861.81366	1136.80908	1032.06128	854.59528	1140.90088	980.84833	787.33337	1531.76526	1062.41467	933.76685	1316.39893	1056.89575	927.60785	1475.47803	1248.71704	944.05005	1330.63879	1241.13306	946.46277	1595.40027	1029.12964	616.67273	1578.60132	1007.80847	483.53528	1596.18945	1032.95056	295.01401	1547.42175	1032.69019	74.64346	1493.04529	1072.92480	43.69590	1552.34106	883.37891	41.46699	1260.92993	1138.60925	594.96686	1279.37878	1160.30347	434.50079	1274.04553	1302.71960	326.14853	1315.40674	1443.04309	170.03999	1364.40259	1499.19751	179.41588	1349.89893	1378.77478	41.15305	1417.31238	1085.50391	1712.04150	-3101.78223	1973.16101	1023.30927	-3140.62671	2012.58142	1022.19446			 
3	0.020	1511.22729	1076.59387	1672.34460	1399.75769	1055.42139	1682.39587	1492.76904	1179.81946	1604.06079	1374.91040	1161.41309	1613.06580	1443.60706	1195.36572	1428.81287	1420.45752	1224.45435	1136.47742	1458.86169	1050.42126	1363.93811	1460.67407	1004.10101	1210.87659	1351.81189	1237.24609	1238.89270	1611.53369	1135.82373	1383.69348	1677.61230	1191.02258	1196.71655	1664.14026	1217.83350	1050.68750	1693.34851	1207.53503	939.96661	1685.96240	1152.03638	810.20996	1701.43091	1210.50159	818.07239	1711.96863	1180.64587	737.37012	1301.23792	1095.60034	1399.25366	1187.97595	1137.11951	1202.20325	1180.50293	1131.69946	1075.83728	1153.78650	1084.06311	962.69421	1180.89124	987.93170	860.99792	1138.48169	1028.13623	854.79376	1142.33911	978.20093	786.53076	1534.25549	1052.67456	935.20020	1318.97595	1047.80981	928.51581	1477.58728	1238.97375	945.04608	1332.63391	1231.67737	947.02209	1597.10535	1021.08594	616.17999	1580.43481	1001.96680	483.05624	1596.41772	1029.80371	294.68631	1547.36609	1032.40430	74.47829	1493.08362	1072.88855	43.65917	1552.59766	883.23413	40.98481	1261.42883	1122.53882	594.37720	1279.63098	1141.58997	434.17041	1274.55920	1286.55225	329.81552	1316.19666	1429.46765	176.08365	1365.78442	1483.95251	189.48685	1351.02954	1377.45935	42.01674	1420.59741	1076.18604	1712.81238	-3101.95703	1973.08948	1023.34155	-3140.53369	2012.53528	1022.02930			 
4	0.030	1514.30176	1067.19409	1672.86609	1402.72180	1046.36523	1683.09900	1495.98303	1170.50110	1604.71167	1378.07544	1152.48096	1614.00537	1446.64929	1186.18176	1429.42407	1423.16699	1215.03369	1137.21326	1461.24683	1041.05945	1364.87366	1462.59314	994.54327	1211.84241	1354.17761	1228.07886	1239.89001	1614.19373	1125.78601	1384.49927	1681.15234	1178.94360	1197.45190	1668.47693	1204.61475	1051.13770	1698.28088	1193.03943	940.81256	1691.42090	1135.95520	811.53149	1706.10657	1194.60608	818.46173	1717.76196	1163.59216	738.44098	1304.10046	1086.88770	1400.57141	1190.39502	1128.93726	1203.83618	1183.13599	1124.23193	1077.56128	1155.92688	1078.32300	964.00702	1182.48914	984.04333	860.21283	1140.10559	1024.17932	855.15692	1143.80371	975.76563	785.72577	1536.58655	1043.13684	936.37823	1321.44141	1039.06274	929.58185	1479.83044	1229.46265	945.92163	1334.81384	1222.55811	947.45062	1599.44043	1014.37250	616.28497	1582.17175	996.79541	482.67245	1596.73499	1027.77112	294.66681	1547.54382	1032.39685	74.67413	1493.11621	1072.91284	43.70295	1552.46777	882.93878	40.59504	1262.11890	1106.74268	593.56152	1280.25037	1122.65588	433.99173	1275.46667	1269.55676	333.42975	1317.00208	1415.26001	181.74660	1366.47937	1468.66394	198.56474	1351.99194	1372.81458	44.52212	1423.76733	1067.01282	1713.64258	-3101.86035	1973.13391	1023.31799	-3140.56982	2012.50879	1022.00177			 
